<svg xmlns="http://www.w3.org/2000/svg" width="607.609" height="630.57" viewBox="0 0 607.609 630.57"><path d="M82.365,292.457a58.273,58.273,0,1,0,58.264,58.282,58.272,58.272,0,0,0-58.264-58.282ZM498.409,557.294a58.25,58.25,0,1,0,79.568,21.327,58.234,58.234,0,0,0-79.568-21.327ZM208.935,350.74A169.973,169.973,0,0,1,281.3,211.475l-42.6-71.352A253.675,253.675,0,0,0,134.024,287.266a81.837,81.837,0,0,1,0,126.927A253.486,253.486,0,0,0,238.7,561.356l42.6-71.37A169.911,169.911,0,0,1,208.935,350.74Zm170.2-170.217A170.212,170.212,0,0,1,548.659,335.641l83.03-1.224a252.356,252.356,0,0,0-75.211-164.182A81.8,81.8,0,0,1,446.76,106.8a253.269,253.269,0,0,0-179.81,17l40.489,72.555a169.527,169.527,0,0,1,71.7-15.833Zm0,340.417a169.545,169.545,0,0,1-71.693-15.833l-40.489,72.553a252.943,252.943,0,0,0,179.81,17,81.8,81.8,0,0,1,109.718-63.435,252.357,252.357,0,0,0,75.211-164.182l-83.051-1.224A170.162,170.162,0,0,1,379.134,520.939ZM498.388,144.15a58.257,58.257,0,1,0-21.33-79.556,58.225,58.225,0,0,0,21.33,79.556Z" transform="translate(-24.083 -35.442)" fill="#fff"/></svg>